# xmcd
#
# Track frame offsets:
#	150
#	19117
#	36905
#	53702
#	72295
#	89135
#	108145
#	122907
#	144120
#	162352
#	178027
#	195767
#	213132
#	230982
#	249610
#	266922
#	285012
#
# Disc length: 4082
#
# Revision: 1
# Processed by: cddbd v1.5.1PL0 Copyright (c) Steve Scherf et al.
# Submitted via: dBpowerAMP V4.0
# Normalized: r0:TDELIM( - )
#
DISCID=ee0ff011
DTITLE=Various Artist - Rap Flavas, CD2
DYEAR=1900
DGENRE=Rap
TTITLE0=Run DMC and Jason Nevins - It's Like That
TTITLE1=Xzibit - Paparazzi
TTITLE2=Salt 'N' Peppa - Champagne
TTITLE3=Jazzy Jeff and Fresh Prince - Lovely Daze
TTITLE4=Dr. Dré and Snoop Dogg - 187um
TTITLE5=Skee-Lo - I Wish
TTITLE6=2 Pac and Notorious B.I.G. - Runnin'
TTITLE7=LL Cool J - Doin' It
TTITLE8=Coolio and L.V. - Gangsta's Paradise
TTITLE9=Queen Penn and Eric Williams - All My Love
TTITLE10=Killah Priest - One Step
TTITLE11=Foxy Brown and Blackstreet - Get Me Home
TTITLE12=Papa Bear and Van Der Toorn - Cherish
TTITLE13=Kaleef - Golden Brown
TTITLE14=Rapsody and Warren G and Sissel - Prince Igor
TTITLE15=Pryme - No Playa's Allowed
TTITLE16=Blackstreet and Slash and Ol' Dirty Bastard - Fix
EXTD=
EXTT0=
EXTT1=
EXTT2=
EXTT3=
EXTT4=
EXTT5=
EXTT6=
EXTT7=
EXTT8=
EXTT9=
EXTT10=
EXTT11=
EXTT12=
EXTT13=
EXTT14=
EXTT15=
EXTT16=
PLAYORDER=
